# Goxel 0.15.1
v -7 0 -6 1.000000 1.000000 1.000000
v -6 0 -6 1.000000 1.000000 1.000000
v -6 1 -6 1.000000 1.000000 1.000000
v -7 1 -6 1.000000 1.000000 1.000000
v -7 0 -7 1.000000 1.000000 1.000000
v -6 0 -7 1.000000 1.000000 1.000000
v -6 1 -7 1.000000 1.000000 1.000000
v -7 1 -7 1.000000 1.000000 1.000000
v -5 0 -6 1.000000 1.000000 1.000000
v -5 1 -6 1.000000 1.000000 1.000000
v -5 0 -7 1.000000 1.000000 1.000000
v -5 1 -7 1.000000 1.000000 1.000000
v -4 0 -6 1.000000 1.000000 1.000000
v -4 1 -6 1.000000 1.000000 1.000000
v -4 0 -7 1.000000 1.000000 1.000000
v -4 1 -7 1.000000 1.000000 1.000000
v -3 0 -6 1.000000 1.000000 1.000000
v -3 1 -6 1.000000 1.000000 1.000000
v -3 0 -7 1.000000 1.000000 1.000000
v -3 1 -7 1.000000 1.000000 1.000000
v -2 0 -6 1.000000 1.000000 1.000000
v -2 1 -6 1.000000 1.000000 1.000000
v -2 0 -7 1.000000 1.000000 1.000000
v -2 1 -7 1.000000 1.000000 1.000000
v -1 0 -6 1.000000 1.000000 1.000000
v -1 1 -6 1.000000 1.000000 1.000000
v -1 0 -7 1.000000 1.000000 1.000000
v -1 1 -7 1.000000 1.000000 1.000000
v 0 0 -6 1.000000 1.000000 1.000000
v 0 1 -6 1.000000 1.000000 1.000000
v 0 0 -7 1.000000 1.000000 1.000000
v 0 1 -7 1.000000 1.000000 1.000000
v -7 0 -8 1.000000 1.000000 1.000000
v -6 0 -8 1.000000 1.000000 1.000000
v -6 1 -8 1.000000 1.000000 1.000000
v -7 1 -8 1.000000 1.000000 1.000000
v -5 0 -8 1.000000 1.000000 1.000000
v -4 0 -8 1.000000 1.000000 1.000000
v -3 0 -8 1.000000 1.000000 1.000000
v -2 0 -8 1.000000 1.000000 1.000000
v -1 0 -8 1.000000 1.000000 1.000000
v 0 0 -8 1.000000 1.000000 1.000000
v -7 0 -9 1.000000 1.000000 1.000000
v -6 0 -9 1.000000 1.000000 1.000000
v -6 1 -9 1.000000 1.000000 1.000000
v -7 1 -9 1.000000 1.000000 1.000000
v -5 0 -9 1.000000 1.000000 1.000000
v -4 0 -9 1.000000 1.000000 1.000000
v -3 0 -9 1.000000 1.000000 1.000000
v -2 0 -9 1.000000 1.000000 1.000000
v -1 0 -9 1.000000 1.000000 1.000000
v 0 0 -9 1.000000 1.000000 1.000000
v -7 0 -10 1.000000 1.000000 1.000000
v -6 0 -10 1.000000 1.000000 1.000000
v -6 1 -10 1.000000 1.000000 1.000000
v -7 1 -10 1.000000 1.000000 1.000000
v -5 0 -10 1.000000 1.000000 1.000000
v -4 0 -10 1.000000 1.000000 1.000000
v -3 0 -10 1.000000 1.000000 1.000000
v -2 0 -10 1.000000 1.000000 1.000000
v -1 0 -10 1.000000 1.000000 1.000000
v 0 0 -10 1.000000 1.000000 1.000000
v -7 0 -11 1.000000 1.000000 1.000000
v -6 0 -11 1.000000 1.000000 1.000000
v -6 1 -11 1.000000 1.000000 1.000000
v -7 1 -11 1.000000 1.000000 1.000000
v -5 0 -11 1.000000 1.000000 1.000000
v -4 0 -11 1.000000 1.000000 1.000000
v -3 0 -11 1.000000 1.000000 1.000000
v -2 0 -11 1.000000 1.000000 1.000000
v -1 0 -11 1.000000 1.000000 1.000000
v 0 0 -11 1.000000 1.000000 1.000000
v -6 0 -12 1.000000 1.000000 1.000000
v -7 0 -12 1.000000 1.000000 1.000000
v -7 1 -12 1.000000 1.000000 1.000000
v -6 1 -12 1.000000 1.000000 1.000000
v -5 0 -12 1.000000 1.000000 1.000000
v -5 1 -12 1.000000 1.000000 1.000000
v -5 1 -11 1.000000 1.000000 1.000000
v -4 0 -12 1.000000 1.000000 1.000000
v -4 1 -12 1.000000 1.000000 1.000000
v -4 1 -11 1.000000 1.000000 1.000000
v -3 0 -12 1.000000 1.000000 1.000000
v -3 1 -12 1.000000 1.000000 1.000000
v -3 1 -11 1.000000 1.000000 1.000000
v -2 0 -12 1.000000 1.000000 1.000000
v -2 1 -12 1.000000 1.000000 1.000000
v -2 1 -11 1.000000 1.000000 1.000000
v -1 0 -12 1.000000 1.000000 1.000000
v -1 1 -12 1.000000 1.000000 1.000000
v -1 1 -11 1.000000 1.000000 1.000000
v 0 0 -12 1.000000 1.000000 1.000000
v 0 1 -12 1.000000 1.000000 1.000000
v 0 1 -11 1.000000 1.000000 1.000000
v -5 2 -7 1.000000 1.000000 1.000000
v -6 2 -7 1.000000 1.000000 1.000000
v -5 2 -8 1.000000 1.000000 1.000000
v -6 2 -8 1.000000 1.000000 1.000000
v -4 2 -7 1.000000 1.000000 1.000000
v -4 2 -8 1.000000 1.000000 1.000000
v -3 2 -7 1.000000 1.000000 1.000000
v -3 2 -8 1.000000 1.000000 1.000000
v -2 2 -7 1.000000 1.000000 1.000000
v -2 2 -8 1.000000 1.000000 1.000000
v -1 2 -7 1.000000 1.000000 1.000000
v -1 2 -8 1.000000 1.000000 1.000000
v 0 2 -7 1.000000 1.000000 1.000000
v 0 2 -8 1.000000 1.000000 1.000000
v -5 2 -9 1.000000 1.000000 1.000000
v -6 2 -9 1.000000 1.000000 1.000000
v -4 2 -9 1.000000 1.000000 1.000000
v -3 2 -9 1.000000 1.000000 1.000000
v -2 2 -9 1.000000 1.000000 1.000000
v -1 2 -9 1.000000 1.000000 1.000000
v 0 2 -9 1.000000 1.000000 1.000000
v -5 2 -10 1.000000 1.000000 1.000000
v -6 2 -10 1.000000 1.000000 1.000000
v -4 2 -10 1.000000 1.000000 1.000000
v -3 2 -10 1.000000 1.000000 1.000000
v -2 2 -10 1.000000 1.000000 1.000000
v -1 2 -10 1.000000 1.000000 1.000000
v 0 2 -10 1.000000 1.000000 1.000000
v -6 2 -11 1.000000 1.000000 1.000000
v -5 2 -11 1.000000 1.000000 1.000000
v -4 2 -11 1.000000 1.000000 1.000000
v -3 2 -11 1.000000 1.000000 1.000000
v -2 2 -11 1.000000 1.000000 1.000000
v -1 2 -11 1.000000 1.000000 1.000000
v 0 2 -11 1.000000 1.000000 1.000000
v 1 0 -6 1.000000 1.000000 1.000000
v 1 1 -6 1.000000 1.000000 1.000000
v 1 0 -7 1.000000 1.000000 1.000000
v 1 1 -7 1.000000 1.000000 1.000000
v 2 0 -6 1.000000 1.000000 1.000000
v 2 1 -6 1.000000 1.000000 1.000000
v 2 0 -7 1.000000 1.000000 1.000000
v 2 1 -7 1.000000 1.000000 1.000000
v 3 0 -6 1.000000 1.000000 1.000000
v 3 1 -6 1.000000 1.000000 1.000000
v 3 0 -7 1.000000 1.000000 1.000000
v 3 1 -7 1.000000 1.000000 1.000000
v 4 0 -6 1.000000 1.000000 1.000000
v 4 1 -6 1.000000 1.000000 1.000000
v 4 0 -7 1.000000 1.000000 1.000000
v 4 1 -7 1.000000 1.000000 1.000000
v 5 0 -6 1.000000 1.000000 1.000000
v 5 1 -6 1.000000 1.000000 1.000000
v 5 0 -7 1.000000 1.000000 1.000000
v 5 1 -7 1.000000 1.000000 1.000000
v 6 0 -6 1.000000 1.000000 1.000000
v 6 1 -6 1.000000 1.000000 1.000000
v 6 0 -7 1.000000 1.000000 1.000000
v 6 1 -7 1.000000 1.000000 1.000000
v 7 0 -6 1.000000 1.000000 1.000000
v 7 1 -6 1.000000 1.000000 1.000000
v 7 0 -7 1.000000 1.000000 1.000000
v 7 1 -7 1.000000 1.000000 1.000000
v 8 0 -6 1.000000 1.000000 1.000000
v 8 1 -6 1.000000 1.000000 1.000000
v 8 0 -7 1.000000 1.000000 1.000000
v 8 1 -7 1.000000 1.000000 1.000000
v 9 0 -6 1.000000 1.000000 1.000000
v 9 1 -6 1.000000 1.000000 1.000000
v 9 0 -7 1.000000 1.000000 1.000000
v 9 1 -7 1.000000 1.000000 1.000000
v 10 0 -6 1.000000 1.000000 1.000000
v 10 1 -6 1.000000 1.000000 1.000000
v 10 0 -7 1.000000 1.000000 1.000000
v 10 1 -7 1.000000 1.000000 1.000000
v 11 0 -6 1.000000 1.000000 1.000000
v 11 1 -6 1.000000 1.000000 1.000000
v 11 0 -7 1.000000 1.000000 1.000000
v 11 1 -7 1.000000 1.000000 1.000000
v 12 0 -6 1.000000 1.000000 1.000000
v 12 1 -6 1.000000 1.000000 1.000000
v 12 0 -7 1.000000 1.000000 1.000000
v 12 1 -7 1.000000 1.000000 1.000000
v 13 0 -6 1.000000 1.000000 1.000000
v 13 1 -6 1.000000 1.000000 1.000000
v 13 0 -7 1.000000 1.000000 1.000000
v 13 1 -7 1.000000 1.000000 1.000000
v 14 0 -6 1.000000 1.000000 1.000000
v 14 1 -6 1.000000 1.000000 1.000000
v 14 0 -7 1.000000 1.000000 1.000000
v 14 1 -7 1.000000 1.000000 1.000000
v 1 0 -8 1.000000 1.000000 1.000000
v 2 0 -8 1.000000 1.000000 1.000000
v 3 0 -8 1.000000 1.000000 1.000000
v 4 0 -8 1.000000 1.000000 1.000000
v 4 1 -8 1.000000 1.000000 1.000000
v 3 1 -8 1.000000 1.000000 1.000000
v 5 0 -8 1.000000 1.000000 1.000000
v 6 0 -8 1.000000 1.000000 1.000000
v 7 0 -8 1.000000 1.000000 1.000000
v 8 0 -8 1.000000 1.000000 1.000000
v 9 0 -8 1.000000 1.000000 1.000000
v 10 0 -8 1.000000 1.000000 1.000000
v 11 0 -8 1.000000 1.000000 1.000000
v 12 0 -8 1.000000 1.000000 1.000000
v 13 0 -8 1.000000 1.000000 1.000000
v 14 0 -8 1.000000 1.000000 1.000000
v 14 1 -8 1.000000 1.000000 1.000000
v 13 1 -8 1.000000 1.000000 1.000000
v 1 0 -9 1.000000 1.000000 1.000000
v 2 0 -9 1.000000 1.000000 1.000000
v 3 0 -9 1.000000 1.000000 1.000000
v 4 0 -9 1.000000 1.000000 1.000000
v 4 1 -9 1.000000 1.000000 1.000000
v 3 1 -9 1.000000 1.000000 1.000000
v 5 0 -9 1.000000 1.000000 1.000000
v 6 0 -9 1.000000 1.000000 1.000000
v 7 0 -9 1.000000 1.000000 1.000000
v 8 0 -9 1.000000 1.000000 1.000000
v 9 0 -9 1.000000 1.000000 1.000000
v 10 0 -9 1.000000 1.000000 1.000000
v 11 0 -9 1.000000 1.000000 1.000000
v 12 0 -9 1.000000 1.000000 1.000000
v 13 0 -9 1.000000 1.000000 1.000000
v 14 0 -9 1.000000 1.000000 1.000000
v 14 1 -9 1.000000 1.000000 1.000000
v 13 1 -9 1.000000 1.000000 1.000000
v 1 0 -10 1.000000 1.000000 1.000000
v 2 0 -10 1.000000 1.000000 1.000000
v 3 0 -10 1.000000 1.000000 1.000000
v 4 0 -10 1.000000 1.000000 1.000000
v 4 1 -10 1.000000 1.000000 1.000000
v 3 1 -10 1.000000 1.000000 1.000000
v 5 0 -10 1.000000 1.000000 1.000000
v 6 0 -10 1.000000 1.000000 1.000000
v 7 0 -10 1.000000 1.000000 1.000000
v 8 0 -10 1.000000 1.000000 1.000000
v 9 0 -10 1.000000 1.000000 1.000000
v 10 0 -10 1.000000 1.000000 1.000000
v 11 0 -10 1.000000 1.000000 1.000000
v 12 0 -10 1.000000 1.000000 1.000000
v 13 0 -10 1.000000 1.000000 1.000000
v 14 0 -10 1.000000 1.000000 1.000000
v 14 1 -10 1.000000 1.000000 1.000000
v 13 1 -10 1.000000 1.000000 1.000000
v 1 0 -11 1.000000 1.000000 1.000000
v 2 0 -11 1.000000 1.000000 1.000000
v 3 0 -11 1.000000 1.000000 1.000000
v 4 0 -11 1.000000 1.000000 1.000000
v 4 1 -11 1.000000 1.000000 1.000000
v 3 1 -11 1.000000 1.000000 1.000000
v 5 0 -11 1.000000 1.000000 1.000000
v 6 0 -11 1.000000 1.000000 1.000000
v 7 0 -11 1.000000 1.000000 1.000000
v 8 0 -11 1.000000 1.000000 1.000000
v 9 0 -11 1.000000 1.000000 1.000000
v 10 0 -11 1.000000 1.000000 1.000000
v 11 0 -11 1.000000 1.000000 1.000000
v 12 0 -11 1.000000 1.000000 1.000000
v 13 0 -11 1.000000 1.000000 1.000000
v 14 0 -11 1.000000 1.000000 1.000000
v 14 1 -11 1.000000 1.000000 1.000000
v 13 1 -11 1.000000 1.000000 1.000000
v 1 0 -12 1.000000 1.000000 1.000000
v 1 1 -12 1.000000 1.000000 1.000000
v 1 1 -11 1.000000 1.000000 1.000000
v 2 0 -12 1.000000 1.000000 1.000000
v 2 1 -12 1.000000 1.000000 1.000000
v 2 1 -11 1.000000 1.000000 1.000000
v 3 0 -12 1.000000 1.000000 1.000000
v 3 1 -12 1.000000 1.000000 1.000000
v 4 0 -12 1.000000 1.000000 1.000000
v 4 1 -12 1.000000 1.000000 1.000000
v 5 0 -12 1.000000 1.000000 1.000000
v 5 1 -12 1.000000 1.000000 1.000000
v 5 1 -11 1.000000 1.000000 1.000000
v 6 0 -12 1.000000 1.000000 1.000000
v 6 1 -12 1.000000 1.000000 1.000000
v 6 1 -11 1.000000 1.000000 1.000000
v 7 0 -12 1.000000 1.000000 1.000000
v 7 1 -12 1.000000 1.000000 1.000000
v 7 1 -11 1.000000 1.000000 1.000000
v 8 0 -12 1.000000 1.000000 1.000000
v 8 1 -12 1.000000 1.000000 1.000000
v 8 1 -11 1.000000 1.000000 1.000000
v 9 0 -12 1.000000 1.000000 1.000000
v 9 1 -12 1.000000 1.000000 1.000000
v 9 1 -11 1.000000 1.000000 1.000000
v 10 0 -12 1.000000 1.000000 1.000000
v 10 1 -12 1.000000 1.000000 1.000000
v 10 1 -11 1.000000 1.000000 1.000000
v 11 0 -12 1.000000 1.000000 1.000000
v 11 1 -12 1.000000 1.000000 1.000000
v 11 1 -11 1.000000 1.000000 1.000000
v 12 0 -12 1.000000 1.000000 1.000000
v 12 1 -12 1.000000 1.000000 1.000000
v 12 1 -11 1.000000 1.000000 1.000000
v 13 0 -12 1.000000 1.000000 1.000000
v 13 1 -12 1.000000 1.000000 1.000000
v 14 0 -12 1.000000 1.000000 1.000000
v 14 1 -12 1.000000 1.000000 1.000000
v 1 2 -7 1.000000 1.000000 1.000000
v 1 2 -8 1.000000 1.000000 1.000000
v 2 2 -7 1.000000 1.000000 1.000000
v 2 2 -8 1.000000 1.000000 1.000000
v 3 2 -7 1.000000 1.000000 1.000000
v 3 2 -8 1.000000 1.000000 1.000000
v 5 2 -7 1.000000 1.000000 1.000000
v 4 2 -7 1.000000 1.000000 1.000000
v 5 2 -8 1.000000 1.000000 1.000000
v 4 2 -8 1.000000 1.000000 1.000000
v 6 2 -7 1.000000 1.000000 1.000000
v 6 2 -8 1.000000 1.000000 1.000000
v 7 2 -7 1.000000 1.000000 1.000000
v 7 2 -8 1.000000 1.000000 1.000000
v 8 2 -7 1.000000 1.000000 1.000000
v 8 2 -8 1.000000 1.000000 1.000000
v 9 2 -7 1.000000 1.000000 1.000000
v 9 2 -8 1.000000 1.000000 1.000000
v 10 2 -7 1.000000 1.000000 1.000000
v 10 2 -8 1.000000 1.000000 1.000000
v 11 2 -7 1.000000 1.000000 1.000000
v 11 2 -8 1.000000 1.000000 1.000000
v 12 2 -7 1.000000 1.000000 1.000000
v 12 2 -8 1.000000 1.000000 1.000000
v 13 2 -7 1.000000 1.000000 1.000000
v 13 2 -8 1.000000 1.000000 1.000000
v 1 2 -9 1.000000 1.000000 1.000000
v 2 2 -9 1.000000 1.000000 1.000000
v 3 2 -9 1.000000 1.000000 1.000000
v 5 2 -9 1.000000 1.000000 1.000000
v 4 2 -9 1.000000 1.000000 1.000000
v 6 2 -9 1.000000 1.000000 1.000000
v 7 2 -9 1.000000 1.000000 1.000000
v 8 2 -9 1.000000 1.000000 1.000000
v 9 2 -9 1.000000 1.000000 1.000000
v 10 2 -9 1.000000 1.000000 1.000000
v 11 2 -9 1.000000 1.000000 1.000000
v 12 2 -9 1.000000 1.000000 1.000000
v 13 2 -9 1.000000 1.000000 1.000000
v 1 2 -10 1.000000 1.000000 1.000000
v 2 2 -10 1.000000 1.000000 1.000000
v 3 2 -10 1.000000 1.000000 1.000000
v 5 2 -10 1.000000 1.000000 1.000000
v 4 2 -10 1.000000 1.000000 1.000000
v 6 2 -10 1.000000 1.000000 1.000000
v 7 2 -10 1.000000 1.000000 1.000000
v 8 2 -10 1.000000 1.000000 1.000000
v 9 2 -10 1.000000 1.000000 1.000000
v 10 2 -10 1.000000 1.000000 1.000000
v 11 2 -10 1.000000 1.000000 1.000000
v 12 2 -10 1.000000 1.000000 1.000000
v 13 2 -10 1.000000 1.000000 1.000000
v 1 2 -11 1.000000 1.000000 1.000000
v 2 2 -11 1.000000 1.000000 1.000000
v 3 2 -11 1.000000 1.000000 1.000000
v 4 2 -11 1.000000 1.000000 1.000000
v 5 2 -11 1.000000 1.000000 1.000000
v 6 2 -11 1.000000 1.000000 1.000000
v 7 2 -11 1.000000 1.000000 1.000000
v 8 2 -11 1.000000 1.000000 1.000000
v 9 2 -11 1.000000 1.000000 1.000000
v 10 2 -11 1.000000 1.000000 1.000000
v 11 2 -11 1.000000 1.000000 1.000000
v 12 2 -11 1.000000 1.000000 1.000000
v 13 2 -11 1.000000 1.000000 1.000000
vn 0 0 1
vn 0 -1 -0
vn 0 1 0
vn -1 0 0
vn 0 0 -1
vn 1 0 0
f 1//1 2//1 3//1 4//1
f 1//2 5//2 6//2 2//2
f 3//3 7//3 8//3 4//3
f 1//4 4//4 8//4 5//4
f 2//1 9//1 10//1 3//1
f 2//2 6//2 11//2 9//2
f 10//3 12//3 7//3 3//3
f 9//1 13//1 14//1 10//1
f 9//2 11//2 15//2 13//2
f 14//3 16//3 12//3 10//3
f 13//1 17//1 18//1 14//1
f 13//2 15//2 19//2 17//2
f 18//3 20//3 16//3 14//3
f 17//1 21//1 22//1 18//1
f 17//2 19//2 23//2 21//2
f 22//3 24//3 20//3 18//3
f 21//1 25//1 26//1 22//1
f 21//2 23//2 27//2 25//2
f 26//3 28//3 24//3 22//3
f 25//1 29//1 30//1 26//1
f 25//2 27//2 31//2 29//2
f 30//3 32//3 28//3 26//3
f 5//2 33//2 34//2 6//2
f 7//3 35//3 36//3 8//3
f 5//4 8//4 36//4 33//4
f 6//2 34//2 37//2 11//2
f 11//2 37//2 38//2 15//2
f 15//2 38//2 39//2 19//2
f 19//2 39//2 40//2 23//2
f 23//2 40//2 41//2 27//2
f 27//2 41//2 42//2 31//2
f 33//2 43//2 44//2 34//2
f 35//3 45//3 46//3 36//3
f 33//4 36//4 46//4 43//4
f 34//2 44//2 47//2 37//2
f 37//2 47//2 48//2 38//2
f 38//2 48//2 49//2 39//2
f 39//2 49//2 50//2 40//2
f 40//2 50//2 51//2 41//2
f 41//2 51//2 52//2 42//2
f 43//2 53//2 54//2 44//2
f 45//3 55//3 56//3 46//3
f 43//4 46//4 56//4 53//4
f 44//2 54//2 57//2 47//2
f 47//2 57//2 58//2 48//2
f 48//2 58//2 59//2 49//2
f 49//2 59//2 60//2 50//2
f 50//2 60//2 61//2 51//2
f 51//2 61//2 62//2 52//2
f 53//2 63//2 64//2 54//2
f 55//3 65//3 66//3 56//3
f 53//4 56//4 66//4 63//4
f 54//2 64//2 67//2 57//2
f 57//2 67//2 68//2 58//2
f 58//2 68//2 69//2 59//2
f 59//2 69//2 70//2 60//2
f 60//2 70//2 71//2 61//2
f 61//2 71//2 72//2 62//2
f 73//5 74//5 75//5 76//5
f 63//2 74//2 73//2 64//2
f 65//3 76//3 75//3 66//3
f 63//4 66//4 75//4 74//4
f 77//5 73//5 76//5 78//5
f 64//2 73//2 77//2 67//2
f 79//3 78//3 76//3 65//3
f 80//5 77//5 78//5 81//5
f 67//2 77//2 80//2 68//2
f 82//3 81//3 78//3 79//3
f 83//5 80//5 81//5 84//5
f 68//2 80//2 83//2 69//2
f 85//3 84//3 81//3 82//3
f 86//5 83//5 84//5 87//5
f 69//2 83//2 86//2 70//2
f 88//3 87//3 84//3 85//3
f 89//5 86//5 87//5 90//5
f 70//2 86//2 89//2 71//2
f 91//3 90//3 87//3 88//3
f 92//5 89//5 90//5 93//5
f 71//2 89//2 92//2 72//2
f 94//3 93//3 90//3 91//3
f 7//1 12//1 95//1 96//1
f 95//3 97//3 98//3 96//3
f 7//4 96//4 98//4 35//4
f 12//1 16//1 99//1 95//1
f 99//3 100//3 97//3 95//3
f 16//1 20//1 101//1 99//1
f 101//3 102//3 100//3 99//3
f 20//1 24//1 103//1 101//1
f 103//3 104//3 102//3 101//3
f 24//1 28//1 105//1 103//1
f 105//3 106//3 104//3 103//3
f 28//1 32//1 107//1 105//1
f 107//3 108//3 106//3 105//3
f 97//3 109//3 110//3 98//3
f 35//4 98//4 110//4 45//4
f 100//3 111//3 109//3 97//3
f 102//3 112//3 111//3 100//3
f 104//3 113//3 112//3 102//3
f 106//3 114//3 113//3 104//3
f 108//3 115//3 114//3 106//3
f 109//3 116//3 117//3 110//3
f 45//4 110//4 117//4 55//4
f 111//3 118//3 116//3 109//3
f 112//3 119//3 118//3 111//3
f 113//3 120//3 119//3 112//3
f 114//3 121//3 120//3 113//3
f 115//3 122//3 121//3 114//3
f 79//5 65//5 123//5 124//5
f 116//3 124//3 123//3 117//3
f 55//4 117//4 123//4 65//4
f 82//5 79//5 124//5 125//5
f 118//3 125//3 124//3 116//3
f 85//5 82//5 125//5 126//5
f 119//3 126//3 125//3 118//3
f 88//5 85//5 126//5 127//5
f 120//3 127//3 126//3 119//3
f 91//5 88//5 127//5 128//5
f 121//3 128//3 127//3 120//3
f 94//5 91//5 128//5 129//5
f 122//3 129//3 128//3 121//3
f 29//1 130//1 131//1 30//1
f 29//2 31//2 132//2 130//2
f 131//3 133//3 32//3 30//3
f 130//1 134//1 135//1 131//1
f 130//2 132//2 136//2 134//2
f 135//3 137//3 133//3 131//3
f 134//1 138//1 139//1 135//1
f 134//2 136//2 140//2 138//2
f 139//3 141//3 137//3 135//3
f 138//1 142//1 143//1 139//1
f 138//2 140//2 144//2 142//2
f 143//3 145//3 141//3 139//3
f 142//1 146//1 147//1 143//1
f 142//2 144//2 148//2 146//2
f 147//3 149//3 145//3 143//3
f 146//1 150//1 151//1 147//1
f 146//2 148//2 152//2 150//2
f 151//3 153//3 149//3 147//3
f 150//1 154//1 155//1 151//1
f 150//2 152//2 156//2 154//2
f 155//3 157//3 153//3 151//3
f 154//1 158//1 159//1 155//1
f 154//2 156//2 160//2 158//2
f 159//3 161//3 157//3 155//3
f 158//1 162//1 163//1 159//1
f 158//2 160//2 164//2 162//2
f 163//3 165//3 161//3 159//3
f 162//1 166//1 167//1 163//1
f 162//2 164//2 168//2 166//2
f 167//3 169//3 165//3 163//3
f 166//1 170//1 171//1 167//1
f 166//2 168//2 172//2 170//2
f 171//3 173//3 169//3 167//3
f 170//1 174//1 175//1 171//1
f 170//2 172//2 176//2 174//2
f 175//3 177//3 173//3 171//3
f 174//1 178//1 179//1 175//1
f 174//2 176//2 180//2 178//2
f 179//3 181//3 177//3 175//3
f 178//1 182//1 183//1 179//1
f 178//2 180//2 184//2 182//2
f 183//3 185//3 181//3 179//3
f 182//6 184//6 185//6 183//6
f 31//2 42//2 186//2 132//2
f 132//2 186//2 187//2 136//2
f 136//2 187//2 188//2 140//2
f 140//2 188//2 189//2 144//2
f 145//3 190//3 191//3 141//3
f 144//2 189//2 192//2 148//2
f 148//2 192//2 193//2 152//2
f 152//2 193//2 194//2 156//2
f 156//2 194//2 195//2 160//2
f 160//2 195//2 196//2 164//2
f 164//2 196//2 197//2 168//2
f 168//2 197//2 198//2 172//2
f 172//2 198//2 199//2 176//2
f 176//2 199//2 200//2 180//2
f 180//2 200//2 201//2 184//2
f 185//3 202//3 203//3 181//3
f 184//6 201//6 202//6 185//6
f 42//2 52//2 204//2 186//2
f 186//2 204//2 205//2 187//2
f 187//2 205//2 206//2 188//2
f 188//2 206//2 207//2 189//2
f 190//3 208//3 209//3 191//3
f 189//2 207//2 210//2 192//2
f 192//2 210//2 211//2 193//2
f 193//2 211//2 212//2 194//2
f 194//2 212//2 213//2 195//2
f 195//2 213//2 214//2 196//2
f 196//2 214//2 215//2 197//2
f 197//2 215//2 216//2 198//2
f 198//2 216//2 217//2 199//2
f 199//2 217//2 218//2 200//2
f 200//2 218//2 219//2 201//2
f 202//3 220//3 221//3 203//3
f 201//6 219//6 220//6 202//6
f 52//2 62//2 222//2 204//2
f 204//2 222//2 223//2 205//2
f 205//2 223//2 224//2 206//2
f 206//2 224//2 225//2 207//2
f 208//3 226//3 227//3 209//3
f 207//2 225//2 228//2 210//2
f 210//2 228//2 229//2 211//2
f 211//2 229//2 230//2 212//2
f 212//2 230//2 231//2 213//2
f 213//2 231//2 232//2 214//2
f 214//2 232//2 233//2 215//2
f 215//2 233//2 234//2 216//2
f 216//2 234//2 235//2 217//2
f 217//2 235//2 236//2 218//2
f 218//2 236//2 237//2 219//2
f 220//3 238//3 239//3 221//3
f 219//6 237//6 238//6 220//6
f 62//2 72//2 240//2 222//2
f 222//2 240//2 241//2 223//2
f 223//2 241//2 242//2 224//2
f 224//2 242//2 243//2 225//2
f 226//3 244//3 245//3 227//3
f 225//2 243//2 246//2 228//2
f 228//2 246//2 247//2 229//2
f 229//2 247//2 248//2 230//2
f 230//2 248//2 249//2 231//2
f 231//2 249//2 250//2 232//2
f 232//2 250//2 251//2 233//2
f 233//2 251//2 252//2 234//2
f 234//2 252//2 253//2 235//2
f 235//2 253//2 254//2 236//2
f 236//2 254//2 255//2 237//2
f 238//3 256//3 257//3 239//3
f 237//6 255//6 256//6 238//6
f 258//5 92//5 93//5 259//5
f 72//2 92//2 258//2 240//2
f 260//3 259//3 93//3 94//3
f 261//5 258//5 259//5 262//5
f 240//2 258//2 261//2 241//2
f 263//3 262//3 259//3 260//3
f 264//5 261//5 262//5 265//5
f 241//2 261//2 264//2 242//2
f 245//3 265//3 262//3 263//3
f 266//5 264//5 265//5 267//5
f 242//2 264//2 266//2 243//2
f 244//3 267//3 265//3 245//3
f 268//5 266//5 267//5 269//5
f 243//2 266//2 268//2 246//2
f 270//3 269//3 267//3 244//3
f 271//5 268//5 269//5 272//5
f 246//2 268//2 271//2 247//2
f 273//3 272//3 269//3 270//3
f 274//5 271//5 272//5 275//5
f 247//2 271//2 274//2 248//2
f 276//3 275//3 272//3 273//3
f 277//5 274//5 275//5 278//5
f 248//2 274//2 277//2 249//2
f 279//3 278//3 275//3 276//3
f 280//5 277//5 278//5 281//5
f 249//2 277//2 280//2 250//2
f 282//3 281//3 278//3 279//3
f 283//5 280//5 281//5 284//5
f 250//2 280//2 283//2 251//2
f 285//3 284//3 281//3 282//3
f 286//5 283//5 284//5 287//5
f 251//2 283//2 286//2 252//2
f 288//3 287//3 284//3 285//3
f 289//5 286//5 287//5 290//5
f 252//2 286//2 289//2 253//2
f 291//3 290//3 287//3 288//3
f 292//5 289//5 290//5 293//5
f 253//2 289//2 292//2 254//2
f 257//3 293//3 290//3 291//3
f 294//5 292//5 293//5 295//5
f 254//2 292//2 294//2 255//2
f 256//3 295//3 293//3 257//3
f 255//6 294//6 295//6 256//6
f 32//1 133//1 296//1 107//1
f 296//3 297//3 108//3 107//3
f 133//1 137//1 298//1 296//1
f 298//3 299//3 297//3 296//3
f 137//1 141//1 300//1 298//1
f 300//3 301//3 299//3 298//3
f 141//6 191//6 301//6 300//6
f 145//1 149//1 302//1 303//1
f 302//3 304//3 305//3 303//3
f 145//4 303//4 305//4 190//4
f 149//1 153//1 306//1 302//1
f 306//3 307//3 304//3 302//3
f 153//1 157//1 308//1 306//1
f 308//3 309//3 307//3 306//3
f 157//1 161//1 310//1 308//1
f 310//3 311//3 309//3 308//3
f 161//1 165//1 312//1 310//1
f 312//3 313//3 311//3 310//3
f 165//1 169//1 314//1 312//1
f 314//3 315//3 313//3 312//3
f 169//1 173//1 316//1 314//1
f 316//3 317//3 315//3 314//3
f 173//1 177//1 318//1 316//1
f 318//3 319//3 317//3 316//3
f 177//1 181//1 320//1 318//1
f 320//3 321//3 319//3 318//3
f 181//6 203//6 321//6 320//6
f 297//3 322//3 115//3 108//3
f 299//3 323//3 322//3 297//3
f 301//3 324//3 323//3 299//3
f 191//6 209//6 324//6 301//6
f 304//3 325//3 326//3 305//3
f 190//4 305//4 326//4 208//4
f 307//3 327//3 325//3 304//3
f 309//3 328//3 327//3 307//3
f 311//3 329//3 328//3 309//3
f 313//3 330//3 329//3 311//3
f 315//3 331//3 330//3 313//3
f 317//3 332//3 331//3 315//3
f 319//3 333//3 332//3 317//3
f 321//3 334//3 333//3 319//3
f 203//6 221//6 334//6 321//6
f 322//3 335//3 122//3 115//3
f 323//3 336//3 335//3 322//3
f 324//3 337//3 336//3 323//3
f 209//6 227//6 337//6 324//6
f 325//3 338//3 339//3 326//3
f 208//4 326//4 339//4 226//4
f 327//3 340//3 338//3 325//3
f 328//3 341//3 340//3 327//3
f 329//3 342//3 341//3 328//3
f 330//3 343//3 342//3 329//3
f 331//3 344//3 343//3 330//3
f 332//3 345//3 344//3 331//3
f 333//3 346//3 345//3 332//3
f 334//3 347//3 346//3 333//3
f 221//6 239//6 347//6 334//6
f 260//5 94//5 129//5 348//5
f 335//3 348//3 129//3 122//3
f 263//5 260//5 348//5 349//5
f 336//3 349//3 348//3 335//3
f 245//5 263//5 349//5 350//5
f 337//3 350//3 349//3 336//3
f 227//6 245//6 350//6 337//6
f 270//5 244//5 351//5 352//5
f 338//3 352//3 351//3 339//3
f 226//4 339//4 351//4 244//4
f 273//5 270//5 352//5 353//5
f 340//3 353//3 352//3 338//3
f 276//5 273//5 353//5 354//5
f 341//3 354//3 353//3 340//3
f 279//5 276//5 354//5 355//5
f 342//3 355//3 354//3 341//3
f 282//5 279//5 355//5 356//5
f 343//3 356//3 355//3 342//3
f 285//5 282//5 356//5 357//5
f 344//3 357//3 356//3 343//3
f 288//5 285//5 357//5 358//5
f 345//3 358//3 357//3 344//3
f 291//5 288//5 358//5 359//5
f 346//3 359//3 358//3 345//3
f 257//5 291//5 359//5 360//5
f 347//3 360//3 359//3 346//3
f 239//6 257//6 360//6 347//6
