# Goxel 0.15.1
v 5 3 -11 0.984314 0.549020 0.000000
v 6 3 -11 0.984314 0.549020 0.000000
v 6 4 -11 0.984314 0.549020 0.000000
v 5 4 -11 0.984314 0.549020 0.000000
v 5 3 -12 0.984314 0.549020 0.000000
v 6 3 -12 0.984314 0.549020 0.000000
v 5 4 -12 0.984314 0.549020 0.000000
v 7 3 -11 0.984314 0.549020 0.000000
v 7 4 -11 0.984314 0.549020 0.000000
v 7 3 -12 0.984314 0.549020 0.000000
v 8 3 -11 0.984314 0.549020 0.000000
v 8 4 -11 0.984314 0.549020 0.000000
v 8 3 -12 0.984314 0.549020 0.000000
v 9 3 -11 0.984314 0.549020 0.000000
v 9 4 -11 0.984314 0.549020 0.000000
v 9 3 -12 0.984314 0.549020 0.000000
v 10 3 -11 0.984314 0.549020 0.000000
v 10 4 -11 0.984314 0.549020 0.000000
v 10 3 -12 0.984314 0.549020 0.000000
v 11 3 -11 0.984314 0.549020 0.000000
v 11 4 -11 0.984314 0.549020 0.000000
v 11 3 -12 0.984314 0.549020 0.000000
v 12 3 -11 0.984314 0.549020 0.000000
v 12 4 -11 0.984314 0.549020 0.000000
v 12 3 -12 0.984314 0.549020 0.000000
v 12 4 -12 0.984314 0.549020 0.000000
v 6 3 -13 0.984314 0.549020 0.000000
v 5 3 -13 0.984314 0.549020 0.000000
v 5 4 -13 0.984314 0.549020 0.000000
v 6 4 -13 0.984314 0.549020 0.000000
v 7 3 -13 0.984314 0.549020 0.000000
v 7 4 -13 0.984314 0.549020 0.000000
v 8 3 -13 0.984314 0.549020 0.000000
v 8 4 -13 0.984314 0.549020 0.000000
v 9 3 -13 0.984314 0.549020 0.000000
v 9 4 -13 0.984314 0.549020 0.000000
v 10 3 -13 0.984314 0.549020 0.000000
v 10 4 -13 0.984314 0.549020 0.000000
v 11 3 -13 0.984314 0.549020 0.000000
v 11 4 -13 0.984314 0.549020 0.000000
v 12 3 -13 0.984314 0.549020 0.000000
v 12 4 -13 0.984314 0.549020 0.000000
v 6 5 -11 0.984314 0.549020 0.000000
v 5 5 -11 0.984314 0.549020 0.000000
v 5 5 -12 0.984314 0.549020 0.000000
v 7 5 -11 0.984314 0.549020 0.000000
v 8 5 -11 0.984314 0.549020 0.000000
v 9 5 -11 0.984314 0.549020 0.000000
v 10 5 -11 0.984314 0.549020 0.000000
v 11 5 -11 0.984314 0.549020 0.000000
v 12 5 -11 0.984314 0.549020 0.000000
v 12 5 -12 0.984314 0.549020 0.000000
v 5 5 -13 0.984314 0.549020 0.000000
v 6 5 -13 0.984314 0.549020 0.000000
v 7 5 -13 0.984314 0.549020 0.000000
v 8 5 -13 0.984314 0.549020 0.000000
v 9 5 -13 0.984314 0.549020 0.000000
v 10 5 -13 0.984314 0.549020 0.000000
v 11 5 -13 0.984314 0.549020 0.000000
v 12 5 -13 0.984314 0.549020 0.000000
v 6 6 -11 0.984314 0.549020 0.000000
v 5 6 -11 0.984314 0.549020 0.000000
v 6 6 -12 0.984314 0.549020 0.000000
v 5 6 -12 0.984314 0.549020 0.000000
v 7 6 -11 0.984314 0.549020 0.000000
v 7 6 -12 0.984314 0.549020 0.000000
v 8 6 -11 0.984314 0.549020 0.000000
v 8 6 -12 0.984314 0.549020 0.000000
v 9 6 -11 0.984314 0.549020 0.000000
v 9 6 -12 0.984314 0.549020 0.000000
v 10 6 -11 0.984314 0.549020 0.000000
v 10 6 -12 0.984314 0.549020 0.000000
v 11 6 -11 0.984314 0.549020 0.000000
v 11 6 -12 0.984314 0.549020 0.000000
v 12 6 -11 0.984314 0.549020 0.000000
v 12 6 -12 0.984314 0.549020 0.000000
v 5 6 -13 0.984314 0.549020 0.000000
v 6 6 -13 0.984314 0.549020 0.000000
v 7 6 -13 0.984314 0.549020 0.000000
v 8 6 -13 0.984314 0.549020 0.000000
v 9 6 -13 0.984314 0.549020 0.000000
v 10 6 -13 0.984314 0.549020 0.000000
v 11 6 -13 0.984314 0.549020 0.000000
v 12 6 -13 0.984314 0.549020 0.000000
vn 0 0 1
vn 0 -1 -0
vn -1 0 0
vn 1 0 0
vn 0 0 -1
vn 0 1 0
f 1//1 2//1 3//1 4//1
f 1//2 5//2 6//2 2//2
f 1//3 4//3 7//3 5//3
f 2//1 8//1 9//1 3//1
f 2//2 6//2 10//2 8//2
f 8//1 11//1 12//1 9//1
f 8//2 10//2 13//2 11//2
f 11//1 14//1 15//1 12//1
f 11//2 13//2 16//2 14//2
f 14//1 17//1 18//1 15//1
f 14//2 16//2 19//2 17//2
f 17//1 20//1 21//1 18//1
f 17//2 19//2 22//2 20//2
f 20//1 23//1 24//1 21//1
f 20//2 22//2 25//2 23//2
f 23//4 25//4 26//4 24//4
f 27//5 28//5 29//5 30//5
f 5//2 28//2 27//2 6//2
f 5//3 7//3 29//3 28//3
f 31//5 27//5 30//5 32//5
f 6//2 27//2 31//2 10//2
f 33//5 31//5 32//5 34//5
f 10//2 31//2 33//2 13//2
f 35//5 33//5 34//5 36//5
f 13//2 33//2 35//2 16//2
f 37//5 35//5 36//5 38//5
f 16//2 35//2 37//2 19//2
f 39//5 37//5 38//5 40//5
f 19//2 37//2 39//2 22//2
f 41//5 39//5 40//5 42//5
f 22//2 39//2 41//2 25//2
f 25//4 41//4 42//4 26//4
f 4//1 3//1 43//1 44//1
f 4//3 44//3 45//3 7//3
f 3//1 9//1 46//1 43//1
f 9//1 12//1 47//1 46//1
f 12//1 15//1 48//1 47//1
f 15//1 18//1 49//1 48//1
f 18//1 21//1 50//1 49//1
f 21//1 24//1 51//1 50//1
f 24//4 26//4 52//4 51//4
f 30//5 29//5 53//5 54//5
f 7//3 45//3 53//3 29//3
f 32//5 30//5 54//5 55//5
f 34//5 32//5 55//5 56//5
f 36//5 34//5 56//5 57//5
f 38//5 36//5 57//5 58//5
f 40//5 38//5 58//5 59//5
f 42//5 40//5 59//5 60//5
f 26//4 42//4 60//4 52//4
f 44//1 43//1 61//1 62//1
f 61//6 63//6 64//6 62//6
f 44//3 62//3 64//3 45//3
f 43//1 46//1 65//1 61//1
f 65//6 66//6 63//6 61//6
f 46//1 47//1 67//1 65//1
f 67//6 68//6 66//6 65//6
f 47//1 48//1 69//1 67//1
f 69//6 70//6 68//6 67//6
f 48//1 49//1 71//1 69//1
f 71//6 72//6 70//6 69//6
f 49//1 50//1 73//1 71//1
f 73//6 74//6 72//6 71//6
f 50//1 51//1 75//1 73//1
f 75//6 76//6 74//6 73//6
f 51//4 52//4 76//4 75//4
f 54//5 53//5 77//5 78//5
f 63//6 78//6 77//6 64//6
f 45//3 64//3 77//3 53//3
f 55//5 54//5 78//5 79//5
f 66//6 79//6 78//6 63//6
f 56//5 55//5 79//5 80//5
f 68//6 80//6 79//6 66//6
f 57//5 56//5 80//5 81//5
f 70//6 81//6 80//6 68//6
f 58//5 57//5 81//5 82//5
f 72//6 82//6 81//6 70//6
f 59//5 58//5 82//5 83//5
f 74//6 83//6 82//6 72//6
f 60//5 59//5 83//5 84//5
f 76//6 84//6 83//6 74//6
f 52//4 60//4 84//4 76//4
