# Goxel 0.15.1
v -12 0 12 1.000000 1.000000 1.000000
v -11 0 12 1.000000 1.000000 1.000000
v -11 1 12 1.000000 1.000000 1.000000
v -12 1 12 1.000000 1.000000 1.000000
v -12 0 11 1.000000 1.000000 1.000000
v -11 0 11 1.000000 1.000000 1.000000
v -11 1 11 1.000000 1.000000 1.000000
v -12 1 11 1.000000 1.000000 1.000000
v -10 0 12 1.000000 1.000000 1.000000
v -10 1 12 1.000000 1.000000 1.000000
v -10 0 11 1.000000 1.000000 1.000000
v -10 1 11 1.000000 1.000000 1.000000
v -9 0 12 1.000000 1.000000 1.000000
v -9 1 12 1.000000 1.000000 1.000000
v -9 0 11 1.000000 1.000000 1.000000
v -9 1 11 1.000000 1.000000 1.000000
v -8 0 12 1.000000 1.000000 1.000000
v -8 1 12 1.000000 1.000000 1.000000
v -8 0 11 1.000000 1.000000 1.000000
v -8 1 11 1.000000 1.000000 1.000000
v -7 0 12 1.000000 1.000000 1.000000
v -7 1 12 1.000000 1.000000 1.000000
v -7 0 11 1.000000 1.000000 1.000000
v -7 1 11 1.000000 1.000000 1.000000
v -6 0 12 1.000000 1.000000 1.000000
v -6 1 12 1.000000 1.000000 1.000000
v -6 0 11 1.000000 1.000000 1.000000
v -6 1 11 1.000000 1.000000 1.000000
v -5 0 12 1.000000 1.000000 1.000000
v -5 1 12 1.000000 1.000000 1.000000
v -5 0 11 1.000000 1.000000 1.000000
v -5 1 11 1.000000 1.000000 1.000000
v -4 0 12 1.000000 1.000000 1.000000
v -4 1 12 1.000000 1.000000 1.000000
v -4 0 11 1.000000 1.000000 1.000000
v -4 1 11 1.000000 1.000000 1.000000
v -3 0 12 1.000000 1.000000 1.000000
v -3 1 12 1.000000 1.000000 1.000000
v -3 0 11 1.000000 1.000000 1.000000
v -3 1 11 1.000000 1.000000 1.000000
v -2 0 12 1.000000 1.000000 1.000000
v -2 1 12 1.000000 1.000000 1.000000
v -2 0 11 1.000000 1.000000 1.000000
v -2 1 11 1.000000 1.000000 1.000000
v -1 0 12 1.000000 1.000000 1.000000
v -1 1 12 1.000000 1.000000 1.000000
v -1 0 11 1.000000 1.000000 1.000000
v -1 1 11 1.000000 1.000000 1.000000
v -12 0 10 1.000000 1.000000 1.000000
v -11 0 10 1.000000 1.000000 1.000000
v -11 1 10 1.000000 1.000000 1.000000
v -12 1 10 1.000000 1.000000 1.000000
v -12 0 9 1.000000 1.000000 1.000000
v -11 0 9 1.000000 1.000000 1.000000
v -11 1 9 1.000000 1.000000 1.000000
v -12 1 9 1.000000 1.000000 1.000000
v -12 0 8 1.000000 1.000000 1.000000
v -11 0 8 1.000000 1.000000 1.000000
v -11 1 8 1.000000 1.000000 1.000000
v -12 1 8 1.000000 1.000000 1.000000
v -12 0 7 1.000000 1.000000 1.000000
v -11 0 7 1.000000 1.000000 1.000000
v -11 1 7 1.000000 1.000000 1.000000
v -12 1 7 1.000000 1.000000 1.000000
v -12 0 6 1.000000 1.000000 1.000000
v -11 0 6 1.000000 1.000000 1.000000
v -11 1 6 1.000000 1.000000 1.000000
v -12 1 6 1.000000 1.000000 1.000000
v -12 0 5 1.000000 1.000000 1.000000
v -11 0 5 1.000000 1.000000 1.000000
v -11 1 5 1.000000 1.000000 1.000000
v -12 1 5 1.000000 1.000000 1.000000
v -11 0 4 1.000000 1.000000 1.000000
v -12 0 4 1.000000 1.000000 1.000000
v -12 1 4 1.000000 1.000000 1.000000
v -11 1 4 1.000000 1.000000 1.000000
v -10 0 5 1.000000 1.000000 1.000000
v -10 1 5 1.000000 1.000000 1.000000
v -10 0 4 1.000000 1.000000 1.000000
v -10 1 4 1.000000 1.000000 1.000000
v -9 0 5 1.000000 1.000000 1.000000
v -9 1 5 1.000000 1.000000 1.000000
v -9 0 4 1.000000 1.000000 1.000000
v -9 1 4 1.000000 1.000000 1.000000
v -8 0 5 1.000000 1.000000 1.000000
v -8 1 5 1.000000 1.000000 1.000000
v -8 0 4 1.000000 1.000000 1.000000
v -8 1 4 1.000000 1.000000 1.000000
v -7 0 5 1.000000 1.000000 1.000000
v -7 1 5 1.000000 1.000000 1.000000
v -7 0 4 1.000000 1.000000 1.000000
v -7 1 4 1.000000 1.000000 1.000000
v -6 0 5 1.000000 1.000000 1.000000
v -6 1 5 1.000000 1.000000 1.000000
v -6 0 4 1.000000 1.000000 1.000000
v -6 1 4 1.000000 1.000000 1.000000
v -5 0 5 1.000000 1.000000 1.000000
v -5 1 5 1.000000 1.000000 1.000000
v -5 0 4 1.000000 1.000000 1.000000
v -5 1 4 1.000000 1.000000 1.000000
v -4 0 5 1.000000 1.000000 1.000000
v -4 1 5 1.000000 1.000000 1.000000
v -4 0 4 1.000000 1.000000 1.000000
v -4 1 4 1.000000 1.000000 1.000000
v -3 0 5 1.000000 1.000000 1.000000
v -3 1 5 1.000000 1.000000 1.000000
v -3 0 4 1.000000 1.000000 1.000000
v -3 1 4 1.000000 1.000000 1.000000
v -2 0 5 1.000000 1.000000 1.000000
v -2 1 5 1.000000 1.000000 1.000000
v -2 0 4 1.000000 1.000000 1.000000
v -2 1 4 1.000000 1.000000 1.000000
v -1 0 5 1.000000 1.000000 1.000000
v -1 1 5 1.000000 1.000000 1.000000
v -1 0 4 1.000000 1.000000 1.000000
v -1 1 4 1.000000 1.000000 1.000000
vn 0 0 1
vn 0 -1 -0
vn 0 1 0
vn -1 0 0
vn 0 0 -1
vn 1 0 0
f 1//1 2//1 3//1 4//1
f 1//2 5//2 6//2 2//2
f 3//3 7//3 8//3 4//3
f 1//4 4//4 8//4 5//4
f 2//1 9//1 10//1 3//1
f 11//5 6//5 7//5 12//5
f 2//2 6//2 11//2 9//2
f 10//3 12//3 7//3 3//3
f 9//1 13//1 14//1 10//1
f 15//5 11//5 12//5 16//5
f 9//2 11//2 15//2 13//2
f 14//3 16//3 12//3 10//3
f 13//1 17//1 18//1 14//1
f 19//5 15//5 16//5 20//5
f 13//2 15//2 19//2 17//2
f 18//3 20//3 16//3 14//3
f 17//1 21//1 22//1 18//1
f 23//5 19//5 20//5 24//5
f 17//2 19//2 23//2 21//2
f 22//3 24//3 20//3 18//3
f 21//1 25//1 26//1 22//1
f 27//5 23//5 24//5 28//5
f 21//2 23//2 27//2 25//2
f 26//3 28//3 24//3 22//3
f 25//1 29//1 30//1 26//1
f 31//5 27//5 28//5 32//5
f 25//2 27//2 31//2 29//2
f 30//3 32//3 28//3 26//3
f 29//1 33//1 34//1 30//1
f 35//5 31//5 32//5 36//5
f 29//2 31//2 35//2 33//2
f 34//3 36//3 32//3 30//3
f 33//1 37//1 38//1 34//1
f 39//5 35//5 36//5 40//5
f 33//2 35//2 39//2 37//2
f 38//3 40//3 36//3 34//3
f 37//1 41//1 42//1 38//1
f 43//5 39//5 40//5 44//5
f 37//2 39//2 43//2 41//2
f 42//3 44//3 40//3 38//3
f 41//1 45//1 46//1 42//1
f 47//5 43//5 44//5 48//5
f 41//2 43//2 47//2 45//2
f 46//3 48//3 44//3 42//3
f 45//6 47//6 48//6 46//6
f 5//2 49//2 50//2 6//2
f 7//3 51//3 52//3 8//3
f 6//6 50//6 51//6 7//6
f 5//4 8//4 52//4 49//4
f 49//2 53//2 54//2 50//2
f 51//3 55//3 56//3 52//3
f 50//6 54//6 55//6 51//6
f 49//4 52//4 56//4 53//4
f 53//2 57//2 58//2 54//2
f 55//3 59//3 60//3 56//3
f 54//6 58//6 59//6 55//6
f 53//4 56//4 60//4 57//4
f 57//2 61//2 62//2 58//2
f 59//3 63//3 64//3 60//3
f 58//6 62//6 63//6 59//6
f 57//4 60//4 64//4 61//4
f 61//2 65//2 66//2 62//2
f 63//3 67//3 68//3 64//3
f 62//6 66//6 67//6 63//6
f 61//4 64//4 68//4 65//4
f 65//2 69//2 70//2 66//2
f 67//3 71//3 72//3 68//3
f 66//6 70//6 71//6 67//6
f 65//4 68//4 72//4 69//4
f 73//5 74//5 75//5 76//5
f 69//2 74//2 73//2 70//2
f 71//3 76//3 75//3 72//3
f 69//4 72//4 75//4 74//4
f 70//1 77//1 78//1 71//1
f 79//5 73//5 76//5 80//5
f 70//2 73//2 79//2 77//2
f 78//3 80//3 76//3 71//3
f 77//1 81//1 82//1 78//1
f 83//5 79//5 80//5 84//5
f 77//2 79//2 83//2 81//2
f 82//3 84//3 80//3 78//3
f 81//1 85//1 86//1 82//1
f 87//5 83//5 84//5 88//5
f 81//2 83//2 87//2 85//2
f 86//3 88//3 84//3 82//3
f 85//1 89//1 90//1 86//1
f 91//5 87//5 88//5 92//5
f 85//2 87//2 91//2 89//2
f 90//3 92//3 88//3 86//3
f 89//1 93//1 94//1 90//1
f 95//5 91//5 92//5 96//5
f 89//2 91//2 95//2 93//2
f 94//3 96//3 92//3 90//3
f 93//1 97//1 98//1 94//1
f 99//5 95//5 96//5 100//5
f 93//2 95//2 99//2 97//2
f 98//3 100//3 96//3 94//3
f 97//1 101//1 102//1 98//1
f 103//5 99//5 100//5 104//5
f 97//2 99//2 103//2 101//2
f 102//3 104//3 100//3 98//3
f 101//1 105//1 106//1 102//1
f 107//5 103//5 104//5 108//5
f 101//2 103//2 107//2 105//2
f 106//3 108//3 104//3 102//3
f 105//1 109//1 110//1 106//1
f 111//5 107//5 108//5 112//5
f 105//2 107//2 111//2 109//2
f 110//3 112//3 108//3 106//3
f 109//1 113//1 114//1 110//1
f 115//5 111//5 112//5 116//5
f 109//2 111//2 115//2 113//2
f 114//3 116//3 112//3 110//3
f 113//6 115//6 116//6 114//6
