# Goxel 0.15.1
v -10 0 0 1.000000 1.000000 1.000000
v -10 0 -1 1.000000 1.000000 1.000000
v -9 0 -1 1.000000 1.000000 1.000000
v -9 0 0 1.000000 1.000000 1.000000
v -9 1 -1 1.000000 1.000000 1.000000
v -9 1 0 1.000000 1.000000 1.000000
v -10 1 0 1.000000 1.000000 1.000000
v -10 1 -1 1.000000 1.000000 1.000000
v -7 0 0 1.000000 1.000000 1.000000
v -7 0 -1 1.000000 1.000000 1.000000
v -6 0 -1 1.000000 1.000000 1.000000
v -6 0 0 1.000000 1.000000 1.000000
v -6 1 -1 1.000000 1.000000 1.000000
v -6 1 0 1.000000 1.000000 1.000000
v -7 1 0 1.000000 1.000000 1.000000
v -7 1 -1 1.000000 1.000000 1.000000
v -10 0 -2 1.000000 1.000000 1.000000
v -9 0 -2 1.000000 1.000000 1.000000
v -9 1 -2 1.000000 1.000000 1.000000
v -10 1 -2 1.000000 1.000000 1.000000
v -7 0 -2 1.000000 1.000000 1.000000
v -6 0 -2 1.000000 1.000000 1.000000
v -6 1 -2 1.000000 1.000000 1.000000
v -7 1 -2 1.000000 1.000000 1.000000
v -10 0 -3 1.000000 1.000000 1.000000
v -9 0 -3 1.000000 1.000000 1.000000
v -9 1 -3 1.000000 1.000000 1.000000
v -10 1 -3 1.000000 1.000000 1.000000
v -7 0 -3 1.000000 1.000000 1.000000
v -6 0 -3 1.000000 1.000000 1.000000
v -6 1 -3 1.000000 1.000000 1.000000
v -7 1 -3 1.000000 1.000000 1.000000
v -10 0 -4 1.000000 1.000000 1.000000
v -9 0 -4 1.000000 1.000000 1.000000
v -9 1 -4 1.000000 1.000000 1.000000
v -10 1 -4 1.000000 1.000000 1.000000
v -7 0 -4 1.000000 1.000000 1.000000
v -6 0 -4 1.000000 1.000000 1.000000
v -6 1 -4 1.000000 1.000000 1.000000
v -7 1 -4 1.000000 1.000000 1.000000
v -10 0 -5 1.000000 1.000000 1.000000
v -9 0 -5 1.000000 1.000000 1.000000
v -9 1 -5 1.000000 1.000000 1.000000
v -10 1 -5 1.000000 1.000000 1.000000
v -7 0 -5 1.000000 1.000000 1.000000
v -6 0 -5 1.000000 1.000000 1.000000
v -6 1 -5 1.000000 1.000000 1.000000
v -7 1 -5 1.000000 1.000000 1.000000
v -10 0 -6 1.000000 1.000000 1.000000
v -9 0 -6 1.000000 1.000000 1.000000
v -9 1 -6 1.000000 1.000000 1.000000
v -10 1 -6 1.000000 1.000000 1.000000
v -7 0 -6 1.000000 1.000000 1.000000
v -6 0 -6 1.000000 1.000000 1.000000
v -6 1 -6 1.000000 1.000000 1.000000
v -7 1 -6 1.000000 1.000000 1.000000
v -9 0 -7 1.000000 1.000000 1.000000
v -10 0 -7 1.000000 1.000000 1.000000
v -10 1 -7 1.000000 1.000000 1.000000
v -9 1 -7 1.000000 1.000000 1.000000
v -8 0 -6 1.000000 1.000000 1.000000
v -8 1 -6 1.000000 1.000000 1.000000
v -8 0 -7 1.000000 1.000000 1.000000
v -8 1 -7 1.000000 1.000000 1.000000
v -7 0 -7 1.000000 1.000000 1.000000
v -7 1 -7 1.000000 1.000000 1.000000
v -6 0 -7 1.000000 1.000000 1.000000
v -6 1 -7 1.000000 1.000000 1.000000
v -9 2 0 1.000000 1.000000 1.000000
v -9 2 -1 1.000000 1.000000 1.000000
v -10 2 -1 1.000000 1.000000 1.000000
v -10 2 0 1.000000 1.000000 1.000000
v -6 2 0 1.000000 1.000000 1.000000
v -6 2 -1 1.000000 1.000000 1.000000
v -7 2 -1 1.000000 1.000000 1.000000
v -7 2 0 1.000000 1.000000 1.000000
v -9 2 -2 1.000000 1.000000 1.000000
v -10 2 -2 1.000000 1.000000 1.000000
v -6 2 -2 1.000000 1.000000 1.000000
v -7 2 -2 1.000000 1.000000 1.000000
v -9 2 -3 1.000000 1.000000 1.000000
v -10 2 -3 1.000000 1.000000 1.000000
v -6 2 -3 1.000000 1.000000 1.000000
v -7 2 -3 1.000000 1.000000 1.000000
v -9 2 -4 1.000000 1.000000 1.000000
v -10 2 -4 1.000000 1.000000 1.000000
v -6 2 -4 1.000000 1.000000 1.000000
v -7 2 -4 1.000000 1.000000 1.000000
v -9 2 -5 1.000000 1.000000 1.000000
v -10 2 -5 1.000000 1.000000 1.000000
v -6 2 -5 1.000000 1.000000 1.000000
v -7 2 -5 1.000000 1.000000 1.000000
v -9 2 -6 1.000000 1.000000 1.000000
v -10 2 -6 1.000000 1.000000 1.000000
v -6 2 -6 1.000000 1.000000 1.000000
v -7 2 -6 1.000000 1.000000 1.000000
v -10 2 -7 1.000000 1.000000 1.000000
v -9 2 -7 1.000000 1.000000 1.000000
v -8 2 -6 1.000000 1.000000 1.000000
v -8 2 -7 1.000000 1.000000 1.000000
v -7 2 -7 1.000000 1.000000 1.000000
v -6 2 -7 1.000000 1.000000 1.000000
v -10 0 1 1.000000 1.000000 1.000000
v -9 0 1 1.000000 1.000000 1.000000
v -9 1 1 1.000000 1.000000 1.000000
v -10 1 1 1.000000 1.000000 1.000000
v -7 0 1 1.000000 1.000000 1.000000
v -6 0 1 1.000000 1.000000 1.000000
v -6 1 1 1.000000 1.000000 1.000000
v -7 1 1 1.000000 1.000000 1.000000
v -9 2 1 1.000000 1.000000 1.000000
v -10 2 1 1.000000 1.000000 1.000000
v -6 2 1 1.000000 1.000000 1.000000
v -7 2 1 1.000000 1.000000 1.000000
vn 0 -1 -0
vn 1 0 0
vn -1 0 0
vn 0 0 -1
vn 0 0 1
vn 0 1 0
f 1//1 2//1 3//1 4//1
f 4//2 3//2 5//2 6//2
f 1//3 7//3 8//3 2//3
f 9//1 10//1 11//1 12//1
f 12//2 11//2 13//2 14//2
f 9//3 15//3 16//3 10//3
f 2//1 17//1 18//1 3//1
f 3//2 18//2 19//2 5//2
f 2//3 8//3 20//3 17//3
f 10//1 21//1 22//1 11//1
f 11//2 22//2 23//2 13//2
f 10//3 16//3 24//3 21//3
f 17//1 25//1 26//1 18//1
f 18//2 26//2 27//2 19//2
f 17//3 20//3 28//3 25//3
f 21//1 29//1 30//1 22//1
f 22//2 30//2 31//2 23//2
f 21//3 24//3 32//3 29//3
f 25//1 33//1 34//1 26//1
f 26//2 34//2 35//2 27//2
f 25//3 28//3 36//3 33//3
f 29//1 37//1 38//1 30//1
f 30//2 38//2 39//2 31//2
f 29//3 32//3 40//3 37//3
f 33//1 41//1 42//1 34//1
f 34//2 42//2 43//2 35//2
f 33//3 36//3 44//3 41//3
f 37//1 45//1 46//1 38//1
f 38//2 46//2 47//2 39//2
f 37//3 40//3 48//3 45//3
f 41//1 49//1 50//1 42//1
f 42//2 50//2 51//2 43//2
f 41//3 44//3 52//3 49//3
f 45//1 53//1 54//1 46//1
f 46//2 54//2 55//2 47//2
f 45//3 48//3 56//3 53//3
f 57//4 58//4 59//4 60//4
f 49//1 58//1 57//1 50//1
f 49//3 52//3 59//3 58//3
f 50//5 61//5 62//5 51//5
f 63//4 57//4 60//4 64//4
f 50//1 57//1 63//1 61//1
f 61//5 53//5 56//5 62//5
f 65//4 63//4 64//4 66//4
f 61//1 63//1 65//1 53//1
f 67//4 65//4 66//4 68//4
f 53//1 65//1 67//1 54//1
f 54//2 67//2 68//2 55//2
f 69//6 70//6 71//6 72//6
f 6//2 5//2 70//2 69//2
f 7//3 72//3 71//3 8//3
f 73//6 74//6 75//6 76//6
f 14//2 13//2 74//2 73//2
f 15//3 76//3 75//3 16//3
f 70//6 77//6 78//6 71//6
f 5//2 19//2 77//2 70//2
f 8//3 71//3 78//3 20//3
f 74//6 79//6 80//6 75//6
f 13//2 23//2 79//2 74//2
f 16//3 75//3 80//3 24//3
f 77//6 81//6 82//6 78//6
f 19//2 27//2 81//2 77//2
f 20//3 78//3 82//3 28//3
f 79//6 83//6 84//6 80//6
f 23//2 31//2 83//2 79//2
f 24//3 80//3 84//3 32//3
f 81//6 85//6 86//6 82//6
f 27//2 35//2 85//2 81//2
f 28//3 82//3 86//3 36//3
f 83//6 87//6 88//6 84//6
f 31//2 39//2 87//2 83//2
f 32//3 84//3 88//3 40//3
f 85//6 89//6 90//6 86//6
f 35//2 43//2 89//2 85//2
f 36//3 86//3 90//3 44//3
f 87//6 91//6 92//6 88//6
f 39//2 47//2 91//2 87//2
f 40//3 88//3 92//3 48//3
f 89//6 93//6 94//6 90//6
f 43//2 51//2 93//2 89//2
f 44//3 90//3 94//3 52//3
f 91//6 95//6 96//6 92//6
f 47//2 55//2 95//2 91//2
f 48//3 92//3 96//3 56//3
f 60//4 59//4 97//4 98//4
f 93//6 98//6 97//6 94//6
f 52//3 94//3 97//3 59//3
f 51//5 62//5 99//5 93//5
f 64//4 60//4 98//4 100//4
f 99//6 100//6 98//6 93//6
f 62//5 56//5 96//5 99//5
f 66//4 64//4 100//4 101//4
f 96//6 101//6 100//6 99//6
f 68//4 66//4 101//4 102//4
f 95//6 102//6 101//6 96//6
f 55//2 68//2 102//2 95//2
f 103//5 104//5 105//5 106//5
f 103//1 1//1 4//1 104//1
f 104//2 4//2 6//2 105//2
f 103//3 106//3 7//3 1//3
f 107//5 108//5 109//5 110//5
f 107//1 9//1 12//1 108//1
f 108//2 12//2 14//2 109//2
f 107//3 110//3 15//3 9//3
f 106//5 105//5 111//5 112//5
f 111//6 69//6 72//6 112//6
f 105//2 6//2 69//2 111//2
f 106//3 112//3 72//3 7//3
f 110//5 109//5 113//5 114//5
f 113//6 73//6 76//6 114//6
f 109//2 14//2 73//2 113//2
f 110//3 114//3 76//3 15//3
