# Goxel 0.15.1
v -11 0 6 1.000000 1.000000 1.000000
v -10 0 6 1.000000 1.000000 1.000000
v -10 1 6 1.000000 1.000000 1.000000
v -11 1 6 1.000000 1.000000 1.000000
v -11 0 5 1.000000 1.000000 1.000000
v -10 0 5 1.000000 1.000000 1.000000
v -11 1 5 1.000000 1.000000 1.000000
v -9 0 6 1.000000 1.000000 1.000000
v -9 1 6 1.000000 1.000000 1.000000
v -9 0 5 1.000000 1.000000 1.000000
v -8 0 6 1.000000 1.000000 1.000000
v -8 1 6 1.000000 1.000000 1.000000
v -8 0 5 1.000000 1.000000 1.000000
v -7 0 6 1.000000 1.000000 1.000000
v -7 1 6 1.000000 1.000000 1.000000
v -7 0 5 1.000000 1.000000 1.000000
v -8 1 5 1.000000 1.000000 1.000000
v -7 1 5 1.000000 1.000000 1.000000
v -6 0 6 1.000000 1.000000 1.000000
v -6 1 6 1.000000 1.000000 1.000000
v -6 0 5 1.000000 1.000000 1.000000
v -5 0 6 1.000000 1.000000 1.000000
v -5 1 6 1.000000 1.000000 1.000000
v -5 0 5 1.000000 1.000000 1.000000
v -4 0 6 1.000000 1.000000 1.000000
v -4 1 6 1.000000 1.000000 1.000000
v -4 0 5 1.000000 1.000000 1.000000
v -4 1 5 1.000000 1.000000 1.000000
v -12 0 5 1.000000 1.000000 1.000000
v -12 1 5 1.000000 1.000000 1.000000
v -12 0 4 1.000000 1.000000 1.000000
v -11 0 4 1.000000 1.000000 1.000000
v -11 1 4 1.000000 1.000000 1.000000
v -12 1 4 1.000000 1.000000 1.000000
v -10 0 4 1.000000 1.000000 1.000000
v -9 0 4 1.000000 1.000000 1.000000
v -8 0 4 1.000000 1.000000 1.000000
v -8 1 4 1.000000 1.000000 1.000000
v -7 0 4 1.000000 1.000000 1.000000
v -6 0 4 1.000000 1.000000 1.000000
v -6 1 5 1.000000 1.000000 1.000000
v -6 1 4 1.000000 1.000000 1.000000
v -7 1 4 1.000000 1.000000 1.000000
v -5 0 4 1.000000 1.000000 1.000000
v -5 1 5 1.000000 1.000000 1.000000
v -5 1 4 1.000000 1.000000 1.000000
v -4 0 4 1.000000 1.000000 1.000000
v -4 1 4 1.000000 1.000000 1.000000
v -11 0 3 1.000000 1.000000 1.000000
v -12 0 3 1.000000 1.000000 1.000000
v -12 1 3 1.000000 1.000000 1.000000
v -11 1 3 1.000000 1.000000 1.000000
v -10 0 3 1.000000 1.000000 1.000000
v -10 1 3 1.000000 1.000000 1.000000
v -9 0 3 1.000000 1.000000 1.000000
v -8 0 3 1.000000 1.000000 1.000000
v -7 0 3 1.000000 1.000000 1.000000
v -7 1 3 1.000000 1.000000 1.000000
v -8 1 3 1.000000 1.000000 1.000000
v -6 0 3 1.000000 1.000000 1.000000
v -6 1 3 1.000000 1.000000 1.000000
v -5 0 3 1.000000 1.000000 1.000000
v -5 1 3 1.000000 1.000000 1.000000
v -4 0 3 1.000000 1.000000 1.000000
v -4 1 3 1.000000 1.000000 1.000000
v -9 0 2 1.000000 1.000000 1.000000
v -10 0 2 1.000000 1.000000 1.000000
v -10 1 2 1.000000 1.000000 1.000000
v -9 1 2 1.000000 1.000000 1.000000
v -9 1 3 1.000000 1.000000 1.000000
v -8 0 2 1.000000 1.000000 1.000000
v -8 1 2 1.000000 1.000000 1.000000
v -7 0 2 1.000000 1.000000 1.000000
v -7 1 2 1.000000 1.000000 1.000000
v -10 2 6 1.000000 1.000000 1.000000
v -11 2 6 1.000000 1.000000 1.000000
v -10 2 5 1.000000 1.000000 1.000000
v -11 2 5 1.000000 1.000000 1.000000
v -9 2 6 1.000000 1.000000 1.000000
v -8 2 6 1.000000 1.000000 1.000000
v -7 2 6 1.000000 1.000000 1.000000
v -6 2 6 1.000000 1.000000 1.000000
v -7 2 5 1.000000 1.000000 1.000000
v -6 2 5 1.000000 1.000000 1.000000
v -5 2 6 1.000000 1.000000 1.000000
v -5 2 5 1.000000 1.000000 1.000000
v -4 2 6 1.000000 1.000000 1.000000
v -4 2 5 1.000000 1.000000 1.000000
v -10 2 4 1.000000 1.000000 1.000000
v -11 2 4 1.000000 1.000000 1.000000
v -9 2 5 1.000000 1.000000 1.000000
v -9 2 4 1.000000 1.000000 1.000000
v -8 2 4 1.000000 1.000000 1.000000
v -7 2 4 1.000000 1.000000 1.000000
v -4 2 4 1.000000 1.000000 1.000000
v -5 2 4 1.000000 1.000000 1.000000
v -11 2 3 1.000000 1.000000 1.000000
v -10 2 3 1.000000 1.000000 1.000000
v -9 2 3 1.000000 1.000000 1.000000
v -8 2 3 1.000000 1.000000 1.000000
v -6 2 4 1.000000 1.000000 1.000000
v -7 2 3 1.000000 1.000000 1.000000
v -6 2 3 1.000000 1.000000 1.000000
v -5 2 3 1.000000 1.000000 1.000000
v -4 2 3 1.000000 1.000000 1.000000
v -9 3 6 1.000000 1.000000 1.000000
v -10 3 6 1.000000 1.000000 1.000000
v -10 3 5 1.000000 1.000000 1.000000
v -9 3 5 1.000000 1.000000 1.000000
v -8 3 6 1.000000 1.000000 1.000000
v -8 3 5 1.000000 1.000000 1.000000
v -7 3 6 1.000000 1.000000 1.000000
v -6 3 6 1.000000 1.000000 1.000000
v -7 3 5 1.000000 1.000000 1.000000
v -6 3 5 1.000000 1.000000 1.000000
v -5 3 6 1.000000 1.000000 1.000000
v -5 3 5 1.000000 1.000000 1.000000
v -9 3 4 1.000000 1.000000 1.000000
v -8 3 4 1.000000 1.000000 1.000000
v -7 3 4 1.000000 1.000000 1.000000
v -7 4 6 1.000000 1.000000 1.000000
v -8 4 6 1.000000 1.000000 1.000000
v -8 4 5 1.000000 1.000000 1.000000
v -7 4 5 1.000000 1.000000 1.000000
vn 0 0 1
vn 0 -1 -0
vn -1 0 0
vn 0 0 -1
vn 1 0 0
vn 0 1 0
f 1//1 2//1 3//1 4//1
f 1//2 5//2 6//2 2//2
f 1//3 4//3 7//3 5//3
f 2//1 8//1 9//1 3//1
f 2//2 6//2 10//2 8//2
f 8//1 11//1 12//1 9//1
f 8//2 10//2 13//2 11//2
f 11//1 14//1 15//1 12//1
f 16//4 13//4 17//4 18//4
f 11//2 13//2 16//2 14//2
f 14//1 19//1 20//1 15//1
f 14//2 16//2 21//2 19//2
f 19//1 22//1 23//1 20//1
f 19//2 21//2 24//2 22//2
f 22//1 25//1 26//1 23//1
f 22//2 24//2 27//2 25//2
f 25//5 27//5 28//5 26//5
f 29//1 5//1 7//1 30//1
f 29//2 31//2 32//2 5//2
f 7//6 33//6 34//6 30//6
f 29//3 30//3 34//3 31//3
f 5//2 32//2 35//2 6//2
f 6//2 35//2 36//2 10//2
f 10//2 36//2 37//2 13//2
f 13//5 37//5 38//5 17//5
f 16//2 39//2 40//2 21//2
f 41//6 42//6 43//6 18//6
f 16//3 18//3 43//3 39//3
f 21//2 40//2 44//2 24//2
f 45//6 46//6 42//6 41//6
f 24//2 44//2 47//2 27//2
f 27//5 47//5 48//5 28//5
f 49//4 50//4 51//4 52//4
f 31//2 50//2 49//2 32//2
f 33//6 52//6 51//6 34//6
f 31//3 34//3 51//3 50//3
f 53//4 49//4 52//4 54//4
f 32//2 49//2 53//2 35//2
f 35//2 53//2 55//2 36//2
f 36//2 55//2 56//2 37//2
f 37//1 39//1 43//1 38//1
f 37//2 56//2 57//2 39//2
f 43//6 58//6 59//6 38//6
f 60//4 57//4 58//4 61//4
f 39//2 57//2 60//2 40//2
f 62//4 60//4 61//4 63//4
f 40//2 60//2 62//2 44//2
f 64//4 62//4 63//4 65//4
f 44//2 62//2 64//2 47//2
f 47//5 64//5 65//5 48//5
f 66//4 67//4 68//4 69//4
f 53//2 67//2 66//2 55//2
f 70//6 69//6 68//6 54//6
f 53//3 54//3 68//3 67//3
f 71//4 66//4 69//4 72//4
f 55//2 66//2 71//2 56//2
f 59//6 72//6 69//6 70//6
f 73//4 71//4 72//4 74//4
f 56//2 71//2 73//2 57//2
f 58//6 74//6 72//6 59//6
f 57//5 73//5 74//5 58//5
f 4//1 3//1 75//1 76//1
f 75//6 77//6 78//6 76//6
f 4//3 76//3 78//3 7//3
f 3//1 9//1 79//1 75//1
f 9//1 12//1 80//1 79//1
f 12//1 15//1 81//1 80//1
f 15//1 20//1 82//1 81//1
f 41//4 18//4 83//4 84//4
f 20//1 23//1 85//1 82//1
f 45//4 41//4 84//4 86//4
f 23//1 26//1 87//1 85//1
f 87//6 88//6 86//6 85//6
f 26//5 28//5 88//5 87//5
f 77//6 89//6 90//6 78//6
f 7//3 78//3 90//3 33//3
f 91//6 92//6 89//6 77//6
f 43//4 38//4 93//4 94//4
f 17//2 38//2 43//2 18//2
f 18//5 43//5 94//5 83//5
f 88//6 95//6 96//6 86//6
f 28//5 48//5 95//5 88//5
f 45//3 86//3 96//3 46//3
f 54//4 52//4 97//4 98//4
f 89//6 98//6 97//6 90//6
f 33//3 90//3 97//3 52//3
f 70//4 54//4 98//4 99//4
f 92//6 99//6 98//6 89//6
f 59//4 70//4 99//4 100//4
f 93//6 100//6 99//6 92//6
f 38//5 59//5 100//5 93//5
f 43//1 42//1 101//1 94//1
f 61//4 58//4 102//4 103//4
f 101//6 103//6 102//6 94//6
f 43//3 94//3 102//3 58//3
f 42//1 46//1 96//1 101//1
f 63//4 61//4 103//4 104//4
f 96//6 104//6 103//6 101//6
f 65//4 63//4 104//4 105//4
f 95//6 105//6 104//6 96//6
f 48//5 65//5 105//5 95//5
f 75//1 79//1 106//1 107//1
f 91//4 77//4 108//4 109//4
f 106//6 109//6 108//6 107//6
f 75//3 107//3 108//3 77//3
f 79//1 80//1 110//1 106//1
f 110//6 111//6 109//6 106//6
f 80//1 81//1 112//1 110//1
f 81//1 82//1 113//1 112//1
f 84//4 83//4 114//4 115//4
f 113//6 115//6 114//6 112//6
f 82//1 85//1 116//1 113//1
f 86//4 84//4 115//4 117//4
f 116//6 117//6 115//6 113//6
f 85//5 86//5 117//5 116//5
f 93//4 92//4 118//4 119//4
f 111//6 119//6 118//6 109//6
f 91//3 109//3 118//3 92//3
f 94//4 93//4 119//4 120//4
f 114//6 120//6 119//6 111//6
f 83//5 94//5 120//5 114//5
f 110//1 112//1 121//1 122//1
f 114//4 111//4 123//4 124//4
f 121//6 124//6 123//6 122//6
f 112//5 114//5 124//5 121//5
f 110//3 122//3 123//3 111//3
