<?xml version="1.0" encoding="utf-8" ?>
<svg baseProfile="tiny" height="800px" version="1.2" width="800px" xmlns="http://www.w3.org/2000/svg" xmlns:ev="http://www.w3.org/2001/xml-events" xmlns:xlink="http://www.w3.org/1999/xlink"><defs />
<line stroke="lightgrey" stroke-width="0.5" x1="0" x2="0" y1="0" y2="800" /><line stroke="lightgrey" stroke-width="0.5" x1="40" x2="40" y1="0" y2="800" />
<line stroke="lightgrey" stroke-width="0.5" x1="80" x2="80" y1="0" y2="800" /><line stroke="lightgrey" stroke-width="0.5" x1="120" x2="120" y1="0" y2="800" /><line stroke="lightgrey" stroke-width="0.5" x1="160" x2="160" y1="0" y2="800" />
<line stroke="lightgrey" stroke-width="0.5" x1="200" x2="200" y1="0" y2="800" />
<line stroke="lightgrey" stroke-width="0.5" x1="240" x2="240" y1="0" y2="800" />
<line stroke="lightgrey" stroke-width="0.5" x1="280" x2="280" y1="0" y2="800" />
<line stroke="lightgrey" stroke-width="0.5" x1="320" x2="320" y1="0" y2="800" />
<line stroke="lightgrey" stroke-width="0.5" x1="360" x2="360" y1="0" y2="800" />
<line stroke="lightgrey" stroke-width="0.5" x1="400" x2="400" y1="0" y2="800" />
<line stroke="lightgrey" stroke-width="0.5" x1="440" x2="440" y1="0" y2="800" />
<line stroke="lightgrey" stroke-width="0.5" x1="480" x2="480" y1="0" y2="800" />
<line stroke="lightgrey" stroke-width="0.5" x1="520" x2="520" y1="0" y2="800" />
<line stroke="lightgrey" stroke-width="0.5" x1="560" x2="560" y1="0" y2="800" />
<line stroke="lightgrey" stroke-width="0.5" x1="600" x2="600" y1="0" y2="800" />
<line stroke="lightgrey" stroke-width="0.5" x1="640" x2="640" y1="0" y2="800" />
<line stroke="lightgrey" stroke-width="0.5" x1="680" x2="680" y1="0" y2="800" />
<line stroke="lightgrey" stroke-width="0.5" x1="720" x2="720" y1="0" y2="800" />
<line stroke="lightgrey" stroke-width="0.5" x1="760" x2="760" y1="0" y2="800" />
<line stroke="lightgrey" stroke-width="0.5" x1="0" x2="800" y1="0" y2="0" />
<line stroke="lightgrey" stroke-width="0.5" x1="0" x2="800" y1="40" y2="40" />
<line stroke="lightgrey" stroke-width="0.5" x1="0" x2="800" y1="80" y2="80" />
<line stroke="lightgrey" stroke-width="0.5" x1="0" x2="800" y1="120" y2="120" />
<line stroke="lightgrey" stroke-width="0.5" x1="0" x2="800" y1="160" y2="160" />
<line stroke="lightgrey" stroke-width="0.5" x1="0" x2="800" y1="200" y2="200" />
<line stroke="lightgrey" stroke-width="0.5" x1="0" x2="800" y1="240" y2="240" />
<line stroke="lightgrey" stroke-width="0.5" x1="0" x2="800" y1="280" y2="280" />
<line stroke="lightgrey" stroke-width="0.5" x1="0" x2="800" y1="320" y2="320" />
<line stroke="lightgrey" stroke-width="0.5" x1="0" x2="800" y1="360" y2="360" />
<line stroke="lightgrey" stroke-width="0.5" x1="0" x2="800" y1="400" y2="400" />
<line stroke="lightgrey" stroke-width="0.5" x1="0" x2="800" y1="440" y2="440" />
<line stroke="lightgrey" stroke-width="0.5" x1="0" x2="800" y1="480" y2="480" />
<line stroke="lightgrey" stroke-width="0.5" x1="0" x2="800" y1="520" y2="520" />
<line stroke="lightgrey" stroke-width="0.5" x1="0" x2="800" y1="560" y2="560" />
<line stroke="lightgrey" stroke-width="0.5" x1="0" x2="800" y1="600" y2="600" />
<line stroke="lightgrey" stroke-width="0.5" x1="0" x2="800" y1="640" y2="640" />
<line stroke="lightgrey" stroke-width="0.5" x1="0" x2="800" y1="680" y2="680" />
<line stroke="lightgrey" stroke-width="0.5" x1="0" x2="800" y1="720" y2="720" />
<line stroke="lightgrey" stroke-width="0.5" x1="0" x2="800" y1="760" y2="760" />
<rect fill="none" height="50" stroke="black" stroke-width="2" width="400" x="250" y="50" />
<text font-size="14px" x="260" y="80">Quantum Control Electronics</text>
<rect fill="none" height="80" stroke="black" stroke-width="2" width="400" x="250" y="120" />
<text font-size="14px" x="360" y="160">QUBIT ARRAY</text>
<rect fill="none" height="50" stroke="black" stroke-width="2" width="400" x="250" y="220" />
<text font-size="14px" x="290" y="250">Quantum Measurement</text>
<rect fill="none" height="50" stroke="black" stroke-width="2" width="400" x="250" y="290" />
<text font-size="14px" x="310" y="320">QUANTUM CHANNEL</text>
<rect fill="none" height="50" stroke="black" stroke-width="2" width="100" x="680" y="50" />
<text font-size="12px" x="690" y="80">Cooling System</text>
<rect fill="none" height="50" stroke="black" stroke-width="2" width="100" x="680" y="120" />
<text font-size="12px" x="685" y="150">Quantum Transducer</text>
<rect fill="none" height="50" stroke="black" stroke-width="2" width="100" x="680" y="220" />
<text font-size="12px" x="690" y="250">Quantum Buffer</text>
<rect fill="none" height="50" stroke="black" stroke-width="2" width="180" x="50" y="120" />
<text font-size="12px" x="60" y="150">Fault Tolerance Debug</text>
<rect fill="none" height="50" stroke="black" stroke-width="2" width="180" x="50" y="180" />
<text font-size="12px" x="70" y="210">Quantum Correction</text>
<rect fill="none" height="50" stroke="black" stroke-width="2" width="100" x="680" y="340" />
<text font-size="12px" x="690" y="370">Annealing Engine</text>
<text font-size="14px" x="310" y="400">Remote Quantum Computer</text>
<text font-size="14px" x="50" y="460">Uscita -&gt;</text>
<text font-size="14px" x="700" y="460">&lt;- Uscita</text>
</svg>
